<?xml version="1.0" encoding="UTF-8" standalone="no"?>
<!-- Created with Inkscape (http://www.inkscape.org/) -->

<svg
   width="50.627743mm"
   height="69.697533mm"
   viewBox="0 0 50.627743 69.697533"
   version="1.1"
   id="svg5"
   xml:space="preserve"
   inkscape:version="1.2-rc (6364d40632, 2022-05-08)"
   sodipodi:docname="css3_logo.svg"
   xmlns:inkscape="http://www.inkscape.org/namespaces/inkscape"
   xmlns:sodipodi="http://sodipodi.sourceforge.net/DTD/sodipodi-0.dtd"
   xmlns="http://www.w3.org/2000/svg"
   xmlns:svg="http://www.w3.org/2000/svg"><sodipodi:namedview
     id="namedview7"
     pagecolor="#505050"
     bordercolor="#eeeeee"
     borderopacity="1"
     inkscape:showpageshadow="0"
     inkscape:pageopacity="0"
     inkscape:pagecheckerboard="0"
     inkscape:deskcolor="#505050"
     inkscape:document-units="mm"
     showgrid="false"
     inkscape:zoom="0.63244789"
     inkscape:cx="760.53696"
     inkscape:cy="544.70891"
     inkscape:window-width="2400"
     inkscape:window-height="1271"
     inkscape:window-x="-9"
     inkscape:window-y="951"
     inkscape:window-maximized="1"
     inkscape:current-layer="g302" /><defs
     id="defs2" /><g
     inkscape:label="Warstwa 1"
     inkscape:groupmode="layer"
     id="layer1"
     transform="translate(55.267882,100.73615)"><g
       id="g302"
       transform="translate(-153.8247,-166.84064)"><path
         style="fill:#ffffff;fill-opacity:1;stroke:none;stroke-width:0.499999;stroke-linecap:round;stroke-linejoin:round;stroke-dasharray:none;stroke-opacity:1"
         d="m 103.13676,87.261814 3.84562,37.864536 17.15737,6.06424 18.04482,-8.57869 1.92281,-36.385446 z"
         id="path1047" /><path
         style="fill:#2963ee;stroke-width:0.264583"
         d="m 123.90321,131.27968 c -0.0695,-0.197 -0.15984,-1.6862 -0.20067,-3.30934 l -0.0742,-2.95115 1.05833,-0.17822 c 0.58208,-0.098 1.26669,-0.1945 1.52136,-0.2144 0.25466,-0.0199 0.46302,-0.11647 0.46302,-0.21461 0,-0.0982 0.44648,-0.25607 0.99218,-0.35093 0.54571,-0.0949 1.28985,-0.2729 1.65365,-0.39564 0.9799,-0.33058 2.72157,-0.83689 3.175,-0.92298 0.21828,-0.0414 0.59953,-0.16343 0.84722,-0.27106 0.2477,-0.10764 0.57512,-0.11859 0.72761,-0.0243 0.15249,0.0942 0.27725,0.0325 0.27725,-0.13716 0,-0.16967 0.1786,-0.23997 0.39688,-0.15621 0.21828,0.0838 0.39687,0.037 0.39687,-0.10398 0,-0.14095 0.26789,-0.2581 0.59531,-0.26033 0.32743,-0.002 0.72804,-0.0915 0.89025,-0.19844 0.27691,-0.18251 0.59975,-2.01741 0.77904,-4.42772 0.32727,-4.39957 0.55843,-6.87916 0.64132,-6.87916 0.0218,0 0.0774,-0.71438 0.12369,-1.5875 0.0886,-1.6734 0.26368,-3.76181 0.69856,-8.33438 0.14532,-1.527966 0.31491,-3.373436 0.37687,-4.101036 0.062,-0.72761 0.18375,-2.15636 0.27064,-3.175 0.0869,-1.01865 0.21539,-2.3581 0.28555,-2.97656 l 0.12756,-1.12448 h -8.08294 -8.08293 v -3.175 -3.175 h 10.45335 10.45335 l -0.14982,1.52135 c -0.0824,0.83675 -0.25911,2.53339 -0.39268,3.77031 -0.13358,1.23693 -0.36778,3.85631 -0.52046,5.82084 -0.15267,1.96453 -0.39624,4.5839 -0.54126,5.82083 -0.25023,2.134436 -0.48322,4.725706 -1.04673,11.641666 -0.13635,1.67349 -0.48757,5.72161 -0.78049,8.99583 -0.29291,3.27422 -0.53468,6.16148 -0.53725,6.41615 -0.003,0.25527 -0.20401,0.46302 -0.44893,0.46302 -0.24434,0 -1.28614,0.25013 -2.31511,0.55586 -1.02897,0.30572 -2.5257,0.73922 -3.32606,0.96333 -0.80036,0.22411 -1.75286,0.49594 -2.11667,0.60408 -0.3638,0.10813 -1.13771,0.32863 -1.71979,0.49 -4.562,1.2647 -6.12961,1.70847 -6.41391,1.81567 -0.18068,0.0681 -0.38539,-0.0373 -0.45493,-0.23431 z m -21.55299,-8.8469 c 0.0127,-0.30822 0.0754,-0.37092 0.15985,-0.15985 0.0764,0.19099 0.067,0.4192 -0.0209,0.50712 -0.0879,0.0879 -0.15045,-0.0683 -0.13896,-0.34727 z m 21.58675,-4.51996 c -0.097,-0.097 -0.17639,-2.24014 -0.17639,-4.7625 v -4.58611 h 3.8721 3.8721 l -0.16611,1.91823 c -0.54889,6.33822 -0.45765,5.93052 -1.36604,6.10424 -0.28793,0.0551 -0.7021,0.17388 -0.92038,0.26404 -0.21828,0.0902 -0.69453,0.2088 -1.05833,0.26365 -0.3638,0.0549 -0.84006,0.16708 -1.05834,0.2494 -1.82757,0.68921 -2.6989,0.84875 -2.99861,0.54905 z m -14.15753,-6.17361 c 0,-0.36381 0.0601,-0.51263 0.13346,-0.33073 0.0734,0.1819 0.0734,0.47955 0,0.66146 -0.0734,0.1819 -0.13346,0.0331 -0.13346,-0.33073 z m 14.15753,-10.23056 c -0.097,-0.097 -0.17639,-1.46441 -0.17639,-3.038646 v -2.86226 l -7.47447,-0.0791 -7.47448,-0.0791 8.06979,-0.0357 c 4.43838,-0.0197 9.78009,0.0323 11.87046,0.11546 l 3.80066,0.1512 -0.17858,2.78871 c -0.0982,1.533796 -0.23797,2.884806 -0.31055,3.002246 -0.15789,0.25547 -7.87284,0.29074 -8.12644,0.0371 z m -12.5256,-23.040746 c 6.95966,-0.0392 18.27059,-0.0392 25.13542,3e-5 6.86483,0.0393 1.17056,0.0714 -12.65391,0.0713 -13.82448,-2e-5 -19.44116,-0.0321 -12.48151,-0.0714 z"
         id="path310" /><path
         style="fill:#254ce3;stroke-width:0.264583"
         d="m 119.65954,134.74498 c -2.03729,-0.57325 -4.12088,-1.15959 -4.63021,-1.30297 -0.50932,-0.14338 -1.81901,-0.5019 -2.91041,-0.7967 -1.09141,-0.2948 -2.34156,-0.64125 -2.77813,-0.7699 -0.43656,-0.12865 -2.00173,-0.56164 -3.47816,-0.96219 l -2.68441,-0.72828 -0.16561,-1.88068 c -0.0911,-1.03438 -0.46667,-5.21443 -0.83464,-9.28901 -0.36796,-4.07459 -0.7771,-8.65849 -0.90919,-10.18646 -0.13208,-1.52797 -0.36341,-4.20688 -0.51406,-5.95313 -0.15065,-1.74625 -0.39457,-4.484676 -0.54205,-6.085406 -0.275751,-2.99296 -0.636958,-7.13503 -1.053184,-12.07715 -0.130474,-1.5492 -0.31945,-3.5435 -0.419947,-4.43177 l -0.182721,-1.61504 h 25.313872 25.31387 l -0.14647,0.85989 c -0.0806,0.47295 -0.44015,4.25318 -0.7991,8.40053 -0.35895,4.14734 -0.77473,8.90984 -0.92395,10.58333 -0.14921,1.673486 -0.39032,4.382156 -0.5358,6.019266 -0.14547,1.63711 -0.38946,4.37555 -0.54221,6.08542 -1.15627,12.94352 -1.2989,14.59835 -1.47761,17.14363 l -0.16802,2.39311 -2.27947,0.61747 c -2.44129,0.6613 -3.77294,1.02929 -9.15864,2.5309 -6.85363,1.91091 -9.14301,2.51618 -9.46327,2.50194 -0.17947,-0.008 -1.99319,-0.48354 -4.03048,-1.0568 z m 7.54063,-4.05407 c 1.38244,-0.38456 2.98979,-0.83123 3.57187,-0.99259 0.58208,-0.16137 1.35599,-0.38188 1.71979,-0.49001 0.36381,-0.10813 1.31631,-0.37997 2.11667,-0.60408 0.80036,-0.2241 2.29709,-0.6576 3.32606,-0.96333 1.02897,-0.30572 2.07077,-0.55586 2.31511,-0.55586 0.24492,0 0.44635,-0.20775 0.44893,-0.46302 0.003,-0.25466 0.24434,-3.14193 0.53725,-6.41615 0.29292,-3.27422 0.64414,-7.32234 0.78049,-8.99583 0.56351,-6.91596 0.7965,-9.50722 1.04674,-11.641666 0.14501,-1.23692 0.38858,-3.8563 0.54125,-5.82083 0.15268,-1.96453 0.38688,-4.58391 0.52046,-5.82083 0.13357,-1.23693 0.31028,-2.93357 0.39268,-3.77032 l 0.14982,-1.52135 h -10.45335 -10.45336 v 3.175 3.175 h -7.94284 -7.94284 l 0.17982,2.57969 c 0.0989,1.41883 0.25866,2.87734 0.35501,3.24114 l 0.17518,0.66146 7.57189,0.0702 7.57188,0.0702 0.0821,3.0392 0.0821,3.039196 -7.48359,-5.3e-4 -7.48359,-5.3e-4 0.13528,1.25677 c 0.0744,0.69122 0.20773,2.1795 0.29627,3.30729 l 0.16099,2.05052 11.02378,0.0585 c 6.06308,0.0322 9.26244,0.0949 7.10969,0.13943 l -3.9141,0.0809 0.0776,4.75568 c 0.0656,4.02064 0.0181,4.75563 -0.30723,4.75536 -0.21168,-1.7e-4 -1.77926,-0.38098 -3.48351,-0.84624 l -3.09865,-0.84592 -0.14394,-1.07231 c -0.0792,-0.58977 -0.22195,-1.75691 -0.31729,-2.59366 l -0.17334,-1.52135 h -3.29302 -3.29302 l 0.14851,1.12448 c 0.0817,0.61846 0.27068,2.61276 0.42001,4.43177 0.39933,4.86431 0.32565,4.66837 1.92936,5.13067 2.57006,0.74087 9.30613,2.60324 10.13719,2.80271 1.4053,0.33729 1.42027,0.37469 1.42027,3.54751 0,2.94411 0.10147,3.45289 0.64764,3.24758 0.15312,-0.0576 1.4095,-0.41929 2.79195,-0.80385 z m 10.09594,-13.39545 c 0,-0.36381 0.0601,-0.51263 0.13345,-0.33073 0.0734,0.1819 0.0734,0.47955 0,0.66145 -0.0734,0.18191 -0.13345,0.0331 -0.13345,-0.33072 z"
         id="path308"
         sodipodi:nodetypes="ssssscssssssscccsssssscssssssssssssssssscccccccsscccccccsscsscssscsscccssssscssssss" /><path
         style="fill:#0f0e0d;stroke:#ffffff;stroke-width:0.5;stroke-dasharray:none;stroke-opacity:1"
         d="m 119.51117,74.699674 v -1.44451 l 2.18281,-0.0769 c 1.22759,-0.0432 2.18281,-0.19263 2.18281,-0.34143 0,-0.1488 -0.95522,-0.29821 -2.18281,-0.34143 l -2.18281,-0.0769 v -3.03201 -3.032 h 3.70416 3.70417 v 1.31221 1.31222 l -2.18281,0.0769 c -1.22759,0.0432 -2.18282,0.19263 -2.18282,0.34143 0,0.1488 0.95523,0.29821 2.18282,0.34143 l 2.18281,0.0769 v 3.1643 3.1643 h -3.70417 -3.70416 z m 9.17222,1.26812 c 0,-0.1372 -0.17639,-0.75186 -0.17639,-1.45521 v -1.27882 h 2.24896 c 1.82268,0 2.24895,-0.0752 2.24895,-0.39688 0,-0.32165 -0.42627,-0.39687 -2.24895,-0.39687 H 128.507 v -3.04271 -3.04271 h 3.83646 3.83645 v 1.31222 1.31222 l -2.18281,0.0769 c -1.22759,0.0432 -2.18281,0.19263 -2.18281,0.34143 0,0.14879 0.95522,0.2982 2.18281,0.34142 l 2.18281,0.0769 v 3.1643 3.1643 h -3.66006 c -2.01304,0 -3.83646,-0.0392 -3.83646,-0.17638 z m -18.43264,-4.8507 v -4.7625 h 3.83646 3.83646 v 1.5875 1.5875 h -2.24896 -2.24896 v 1.5875 1.5875 h 2.24896 2.24896 v 1.5875 1.5875 h -3.83646 -3.83646 z"
         id="path304-2"
         sodipodi:nodetypes="ccssscccccccsssccccccsscssscccccccssscccsssccccccccccccccccc" /></g></g></svg>
