<?xml version="1.0" encoding="UTF-8" standalone="no"?>
<!-- Created with Inkscape (http://www.inkscape.org/) -->

<svg
   width="50.627743mm"
   height="69.697533mm"
   viewBox="0 0 50.627743 69.697533"
   version="1.1"
   id="svg5"
   xml:space="preserve"
   inkscape:version="1.2-rc (6364d40632, 2022-05-08)"
   sodipodi:docname="css3_logo.svg"
   xmlns:inkscape="http://www.inkscape.org/namespaces/inkscape"
   xmlns:sodipodi="http://sodipodi.sourceforge.net/DTD/sodipodi-0.dtd"
   xmlns="http://www.w3.org/2000/svg"
   xmlns:svg="http://www.w3.org/2000/svg"><sodipodi:namedview
     id="namedview7"
     pagecolor="#505050"
     bordercolor="#eeeeee"
     borderopacity="1"
     inkscape:showpageshadow="0"
     inkscape:pageopacity="0"
     inkscape:pagecheckerboard="0"
     inkscape:deskcolor="#505050"
     inkscape:document-units="mm"
     showgrid="false"
     inkscape:zoom="2.8284271"
     inkscape:cx="94.045202"
     inkscape:cy="141.24458"
     inkscape:window-width="2400"
     inkscape:window-height="1271"
     inkscape:window-x="-9"
     inkscape:window-y="951"
     inkscape:window-maximized="1"
     inkscape:current-layer="g302" /><defs
     id="defs2" /><g
     inkscape:label="Warstwa 1"
     inkscape:groupmode="layer"
     id="layer1"
     transform="translate(55.267882,100.73615)"><g
       id="g302"
       transform="translate(-153.8247,-166.84064)"><path
         style="fill:#0f0e0d;stroke:#ffffff;stroke-width:0.5;stroke-dasharray:none;stroke-opacity:1"
         d="m 119.51117,73.255164 c 0.0364,-0.04634 4.35677,0.186613 4.36562,-0.41833 0.009,-0.604943 -4.36562,-0.41833 -4.36562,-0.41833 v -6.06401 h 7.40833 v 2.62443 c 0,0 -4.39307,-0.120375 -4.36563,0.41833 0.0274,0.538705 4.34319,0.328302 4.36563,0.41833 v 6.3286 h -7.40833 z m -9.26042,-6.90057 h 7.67292 v 3.175 h -4.49792 v 3.175 h 4.49792 v 3.175 h -7.67292 z m 18.414,6.901483 c 0.0364,-0.04634 4.35677,0.186613 4.36562,-0.41833 0.009,-0.604943 -4.36562,-0.41833 -4.36562,-0.41833 v -6.06401 h 7.40833 v 2.62443 c 0,0 -4.39307,-0.120375 -4.36563,0.41833 0.0274,0.538705 4.34319,0.328302 4.36563,0.41833 v 6.3286 h -7.40833 z"
         id="path304-2"
         sodipodi:nodetypes="czcccczcccccccccccccccccccccccc" /><g
         id="g637"
         transform="translate(-60.620892,14.425608)"><path
           style="fill:#2963ee;stroke-width:0.29617"
           d="m 182.22787,66.785892 h 24.7656 c -1.31012,16.908637 -4.17843,30.756069 -4.76692,46.909568 -0.10662,0.0241 -13.44151,3.09352 -20.06807,4.79334 0.005,-17.82941 0.0675,-36.363199 0.0694,-51.702908 z"
           id="path310-3"
           sodipodi:nodetypes="cccccc" /><path
           style="fill:#254ce3;stroke-width:0.264583"
           d="m 163.79911,115.67878 c -1.79193,-16.943163 -2.74437,-34.927809 -4.6214,-51.51865 16.87591,0 33.75183,0 50.62774,0 -1.51996,16.444326 -3.41032,34.637992 -4.59316,51.48518 -0.0131,-0.0245 -20.90138,5.65031 -20.90138,5.65031 -6.65991,-1.75195 -13.71932,-3.77404 -20.5118,-5.61684 z m 37.52038,-3.56292 c 1.17219,-14.200944 2.51775,-29.253431 3.96869,-43.98698 -6.9689,0 -13.93781,0 -20.90671,0 -0.11233,0.06685 0.69887,48.86117 0.64761,48.85972 1.64097,-0.62427 16.2474,-3.7805 16.29041,-4.87274 z"
           id="path308-6"
           sodipodi:nodetypes="ccccccccccc" /><path
           style="fill:#ffffff;stroke-width:0.499999;stroke-linecap:round;stroke-linejoin:round"
           d="m 169.03515,73.923172 h 32.17007 l -3.32793,32.576798 -13.16385,3.58678 -12.72012,-3.73468 -1.03536,-10.279628 h 6.50797 l 0.59164,5.324688 7.02564,1.66397 6.84076,-1.66397 0.77652,-7.950058 -22.1123,-0.25884 -0.51768,-6.65587 h 23.14766 l 0.48071,-6.027268 h -23.85023 z"
           id="path632" /></g></g></g></svg>
