<?xml version="1.0" encoding="UTF-8" standalone="no"?>
<!-- Created with Inkscape (http://www.inkscape.org/) -->

<svg
   width="173.15417mm"
   height="282.72794mm"
   viewBox="0 0 173.15418 282.72793"
   version="1.1"
   id="svg5"
   xml:space="preserve"
   inkscape:version="1.2-rc (6364d40632, 2022-05-08)"
   sodipodi:docname="html_mr_digital.svg"
   xmlns:inkscape="http://www.inkscape.org/namespaces/inkscape"
   xmlns:sodipodi="http://sodipodi.sourceforge.net/DTD/sodipodi-0.dtd"
   xmlns="http://www.w3.org/2000/svg"
   xmlns:svg="http://www.w3.org/2000/svg"><sodipodi:namedview
     id="namedview7"
     pagecolor="#505050"
     bordercolor="#eeeeee"
     borderopacity="1"
     inkscape:showpageshadow="0"
     inkscape:pageopacity="0"
     inkscape:pagecheckerboard="0"
     inkscape:deskcolor="#505050"
     inkscape:document-units="mm"
     showgrid="false"
     inkscape:zoom="0.4472082"
     inkscape:cx="1047.6105"
     inkscape:cy="638.40511"
     inkscape:window-width="2400"
     inkscape:window-height="1271"
     inkscape:window-x="1304"
     inkscape:window-y="951"
     inkscape:window-maximized="1"
     inkscape:current-layer="g372"
     inkscape:lockguides="true" /><defs
     id="defs2" /><g
     inkscape:label="Warstwa 1"
     inkscape:groupmode="layer"
     id="layer1"
     transform="translate(348.4022,22.922002)"><g
       id="g372"
       transform="translate(114.53431,74.568953)"><path
         style="fill:#ffffff;stroke:#000000;stroke-width:1.372;stroke-linecap:round;stroke-linejoin:round;stroke-dasharray:none;stroke-opacity:1"
         d="m -459.07405,12.463694 -1.92281,97.027886 167.28436,2.07072 0.88745,-94.217636 z"
         id="path1294-7" /><path
         style="fill:#03b71e;stroke:#000000;stroke-width:1.372;stroke-dasharray:none;stroke-opacity:1"
         d="m -418.28782,180.20861 c 6.46354,-4.3223 6.49681,-4.35879 7.19914,-7.89551 0.38808,-1.95422 2.08224,-10.81028 3.76481,-19.68012 6.3152,-24.13761 10.62373,-40.51335 10.62373,-40.51335 l -65.53874,-0.66606 1.70645,-100.447774 67.05899,2.102592 -2.42241,-7.8063319 C -528.6174,-152.52181 -209.20218,-106.99489 -369.41522,4.2539307 l -2.32548,9.5358733 81.25889,2.54782 c 0,0 -1.89478,94.439526 -2.25419,95.532726 -25.96192,0.16112 -42.82956,0.3161 -74.87059,0.69282 l -0.36687,14.8714 -1.17086,9.07143 2.85722,8.06349 c 1.57147,4.43492 4.77463,13.39734 7.11814,19.91649 l 4.26092,11.853 3.86376,3.18036 c 2.12507,1.7492 3.86376,3.38461 3.86376,3.63426 0,0.58355 -11.59188,-0.56943 -12.27226,-1.22066 -0.28214,-0.27006 -4.36429,-10.87529 -9.07142,-23.56716 l -8.55844,-23.07613 -8.39947,-2.51548 -8.39947,-2.51548 -0.71693,2.11572 c -0.3943,1.16365 -3.4027,13.19536 -6.68532,26.73715 l -5.96839,24.62144 -2.98387,0.40898 c -1.64112,0.22495 -5.58518,0.40899 -8.76457,0.40899 h -5.78071 z m 122.81087,-161.202619 -162.44811,-4.569511 -1.77675,94.75548 163.74109,0.017 z"
         id="path376-8"
         sodipodi:nodetypes="sscccccccccccccsscsssscccsscsscsccccc" /><path
         style="fill:#ffffff;fill-opacity:1;stroke:#000000;stroke-width:2.617;stroke-linecap:round;stroke-dasharray:none;stroke-opacity:1;paint-order:stroke fill markers"
         d="m -384.09096,6.5461728 c -42.70842,-28.6129188 -54.40099,-92.1974208 29.0752,-70.9099898 l 22.79995,-7.948611 -18.40729,12.550439 c 25.24822,17.787224 17.27087,31.612958 -33.46786,66.3081618 z"
         id="path588"
         sodipodi:nodetypes="ccccc" /><path
         style="fill:#000000;fill-opacity:1;stroke:#000000;stroke-width:0.750012;stroke-linecap:round;stroke-linejoin:round;stroke-dasharray:none;stroke-opacity:1"
         id="path1349-2"
         d="m -372.4216,-44.589502 c 0.10783,3.289875 0.0987,6.586294 0.11137,9.879712 -0.005,2.672425 0.003,1.379829 -0.0199,3.877809 0,0 1.29519,1.068927 1.29519,1.068927 v 0 c -0.0224,-2.526746 -0.0152,-1.223245 -0.0199,-3.910524 0.0126,-3.232094 0.001,-6.46754 0.11137,-9.695885 0,0 -1.47827,-1.220039 -1.47827,-1.220039 z" /><path
         style="fill:#000000;fill-opacity:1;stroke:#000000;stroke-width:0.73772;stroke-linecap:round;stroke-linejoin:round;stroke-dasharray:none;stroke-opacity:1"
         id="path1351-6"
         d="m -394.16741,-46.523857 c 0.12773,3.48317 0.0963,6.977609 0.0555,10.464858 -0.0195,1.482252 -0.0443,2.964264 -0.0686,4.44631 -0.007,0.385869 -0.004,0.20179 -0.009,0.552218 0,0 1.4505,1.235538 1.4505,1.235538 v 0 c -0.005,-0.359322 -0.002,-0.170257 -0.009,-0.567189 -0.0242,-1.521017 -0.049,-3.042007 -0.0686,-4.563223 -0.0345,-3.006571 -0.0671,-6.020985 0.006,-9.026678 0.011,-0.448354 0.0327,-0.895794 0.049,-1.343688 0,0 -1.4066,-1.198146 -1.4066,-1.198146 z" /><path
         style="fill:#000000;fill-opacity:1;stroke:#000000;stroke-width:0.942167;stroke-linecap:round;stroke-linejoin:round;stroke-dasharray:none;stroke-opacity:1"
         id="path1353-6"
         d="m -402.17472,-53.69095 c 0.48567,-0.179252 0.96924,-0.364259 1.45699,-0.537749 0.60524,-0.215284 4.0431,-1.394223 4.49878,-1.555167 2.33326,-0.824122 2.43751,-0.880144 4.69078,-1.742234 0,0 -1.81511,-1.217903 -1.81511,-1.217903 v 0 c -0.73285,0.293892 -1.46017,0.601985 -2.19857,0.881669 -2.86061,1.08352 -5.79289,1.964426 -8.75182,2.735197 0,0 2.11895,1.436187 2.11895,1.436187 z" /><path
         style="fill:#000000;fill-opacity:1;stroke:#000000;stroke-width:0.942167;stroke-linecap:round;stroke-linejoin:round;stroke-dasharray:none;stroke-opacity:1"
         id="path1353-4-4"
         d="m -375.57404,-48.586894 c 0.49881,0.138516 0.9993,0.271141 1.49644,0.415549 0.61689,0.17919 4.09526,1.232646 4.55903,1.368478 2.37477,0.695528 2.49211,0.711027 4.82418,1.328978 0,0 -0.76054,-2.049263 -0.76054,-2.049263 v 0 c -0.76639,-0.190026 -1.53658,-0.365296 -2.29915,-0.570087 -2.95426,-0.793384 -5.84821,-1.793043 -8.69938,-2.897645 0,0 0.87942,2.40399 0.87942,2.40399 z" /><path
         style="fill:#03b71e;stroke:#000000;stroke-width:1.372;stroke-dasharray:none;stroke-opacity:1"
         d="m -391.16785,-7.145459 c -3.04105,-2.256346 -5.39106,-4.240563 -5.22225,-4.409366 0.16881,-0.168809 2.95931,0.05382 6.20112,0.494749 5.68181,0.772785 6.20898,0.726487 14.62966,-1.28481 4.80449,-1.147569 9.11342,-2.210942 9.57539,-2.36306 0.46197,-0.152111 0.83995,-0.16467 0.83995,-0.02789 0,0.458907 -19.14494,11.805087 -19.82399,11.748616 -0.3689,-0.03071 -3.15884,-1.901883 -6.19988,-4.158222 z"
         id="path376-9"
         sodipodi:nodetypes="sssssscss" /></g></g></svg>
