<?xml version="1.0" encoding="UTF-8" standalone="no"?>
<!-- Created with Inkscape (http://www.inkscape.org/) -->

<svg
   width="50.361786mm"
   height="69.412857mm"
   viewBox="0 0 50.361786 69.412857"
   version="1.1"
   id="svg5"
   xml:space="preserve"
   inkscape:version="1.2-rc (6364d40632, 2022-05-08)"
   sodipodi:docname="html5_logo.svg"
   xmlns:inkscape="http://www.inkscape.org/namespaces/inkscape"
   xmlns:sodipodi="http://sodipodi.sourceforge.net/DTD/sodipodi-0.dtd"
   xmlns="http://www.w3.org/2000/svg"
   xmlns:svg="http://www.w3.org/2000/svg"><sodipodi:namedview
     id="namedview7"
     pagecolor="#505050"
     bordercolor="#eeeeee"
     borderopacity="1"
     inkscape:showpageshadow="0"
     inkscape:pageopacity="0"
     inkscape:pagecheckerboard="0"
     inkscape:deskcolor="#505050"
     inkscape:document-units="mm"
     showgrid="false"
     inkscape:zoom="0.63244789"
     inkscape:cx="224.52443"
     inkscape:cy="158.90637"
     inkscape:window-width="2400"
     inkscape:window-height="1271"
     inkscape:window-x="-9"
     inkscape:window-y="951"
     inkscape:window-maximized="1"
     inkscape:current-layer="g302" /><defs
     id="defs2" /><g
     inkscape:label="Warstwa 1"
     inkscape:groupmode="layer"
     id="layer1"
     transform="translate(-86.346745,-1.4666548)"><g
       id="g302"
       transform="translate(-153.8247,-166.84064)"><path
         style="fill:#ffffff;fill-opacity:1;stroke:none;stroke-width:0.499999;stroke-linecap:round;stroke-linejoin:round;stroke-dasharray:none;stroke-opacity:1"
         d="m 245.75895,188.08707 3.84562,37.86455 17.15737,6.06424 18.04481,-8.57869 1.92281,-36.38546 z"
         id="path1047-0" /><path
         style="display:inline;fill:#f06428;stroke-width:0.264583"
         d="m 265.34634,230.04582 -0.0808,-3.25616 0.66145,-0.13034 c 0.36381,-0.0717 1.07818,-0.24859 1.5875,-0.39311 0.50933,-0.14453 2.29527,-0.62629 3.96875,-1.07058 3.97184,-1.05448 6.65616,-1.83858 6.8055,-1.98792 0.15746,-0.15746 0.47763,-3.09343 0.85438,-7.83478 0.16766,-2.11005 0.41334,-4.78896 0.54594,-5.95312 0.1326,-1.16417 0.26652,-2.95011 0.29759,-3.96876 l 0.0565,-1.85208 -7.32266,-0.0703 -7.32265,-0.0703 v -3.17081 -3.17082 h 7.66093 7.66092 l 0.13403,-0.85989 c 0.0737,-0.47295 0.20886,-1.9017 0.30032,-3.175 l 0.1663,-2.31511 h -7.96125 -7.96125 v -3.175 -3.175 h 10.31875 10.31875 l -0.007,0.59531 c -0.004,0.32743 -0.12237,1.72641 -0.26315,3.10886 -0.14079,1.38245 -0.61275,6.6212 -1.04881,11.64167 -0.43603,5.02046 -0.97057,10.97359 -1.18785,13.22916 -0.21727,2.25557 -0.58054,6.36323 -0.80727,9.12812 -0.51686,6.30302 -0.5865,7.27605 -1.05851,7.27605 -0.20904,0 -2.91232,0.72666 -6.00729,1.61481 -3.09498,0.88814 -6.66244,1.88607 -7.92768,2.21764 l -2.30043,0.60285 -0.0808,-3.78533 z m 0.0515,-15.06977 v -4.89479 h 3.68633 c 3.44845,0 3.69713,0.034 3.85354,0.5268 0.092,0.28974 0.10171,0.63276 0.0217,0.76228 -0.08,0.12951 -0.26914,1.64549 -0.42022,3.36883 -0.15108,1.72336 -0.36116,3.21966 -0.46686,3.32513 -0.10569,0.10547 -0.87678,0.37649 -1.71352,0.60228 -0.83675,0.22578 -2.18201,0.58911 -2.98947,0.80739 -0.80747,0.21828 -2.11054,0.39688 -2.24896,0.39688 -0.15012,0 0.27749,-1.97537 0.27749,-4.8948 z"
         id="path312"
         sodipodi:nodetypes="ccsssssssccccccccsccccccccscssssscccccscsssssscc"
         inkscape:label="path312" /><path
         style="fill:#e24c23;stroke-width:0.264583"
         d="m 261.16448,236.69621 c -4.22061,-1.18526 -12.7541,-3.56622 -14.80826,-4.1317 -0.79575,-0.21905 -1.51775,-0.51305 -1.60445,-0.65334 -0.19338,-0.31289 -0.52825,-3.82346 -1.71487,-17.97783 -0.50628,-6.03912 -1.10461,-12.70662 -1.32963,-14.81667 -0.62514,-5.86225 -1.651,-18.36346 -1.52526,-18.58698 0.0614,-0.10914 11.41553,-0.19844 25.23142,-0.19844 23.83623,0 25.1198,0.0239 25.1198,0.46737 0,0.49488 -0.77419,9.24934 -1.44444,16.33367 -0.22029,2.32834 -0.82465,9.1149 -1.34302,15.08126 -0.51835,5.96635 -1.11035,12.57432 -1.31556,14.68437 -0.20521,2.11005 -0.37801,4.13998 -0.38399,4.51095 -0.0101,0.61885 -0.19098,0.72297 -2.19371,1.26209 -1.20055,0.32317 -3.6711,1.00361 -5.49011,1.51208 -1.81901,0.50846 -3.54542,0.98127 -3.83646,1.05067 -0.29104,0.0694 -2.43416,0.66186 -4.7625,1.31656 -2.32833,0.65471 -4.41192,1.18107 -4.63021,1.1697 -0.21828,-0.0114 -2.00421,-0.47206 -3.96875,-1.02376 z m 14.49078,-6.06681 c 3.09498,-0.88815 5.79825,-1.61481 6.00729,-1.61481 0.47202,0 0.54165,-0.44386 1.05852,-6.74688 0.22672,-2.76489 0.58999,-6.87255 0.80727,-9.12812 0.21727,-2.25557 0.75181,-8.2087 1.18784,-13.22917 0.43606,-5.02047 0.90803,-10.25922 1.04881,-11.64167 0.14079,-1.38244 0.25922,-2.78143 0.26316,-3.10885 l 0.007,-0.59531 H 275.7164 265.39765 v 3.175 3.175 h -8.10028 -8.10028 l 0.16191,1.38906 c 0.089,0.76398 0.4019,4.24656 0.69524,7.73906 0.57193,6.80945 0.75358,8.65378 0.94465,9.59115 l 0.12134,0.59531 h 7.13871 7.13871 v 4.89479 c 0,4.18103 -0.0581,4.8948 -0.39806,4.8948 -0.44833,0 -5.08929,-1.20923 -6.06564,-1.58043 -0.6537,-0.24854 -0.67338,-0.33365 -1.01065,-4.3727 l -0.0663,-0.79375 -3.24114,-0.0743 -3.24115,-0.0743 0.005,0.73575 c 0.007,0.99962 0.75959,9.39565 0.84912,9.4779 0.0393,0.0361 2.51226,0.74586 5.49544,1.57722 2.98318,0.83135 5.90021,1.66512 6.48229,1.85281 l 1.05833,0.34125 0.0741,3.17259 0.074,3.17259 2.3072,-0.6046 c 1.26896,-0.33253 4.83945,-1.33127 7.93443,-2.21941 z m -18.59351,-27.34554 c -0.18152,-0.51148 -0.59398,-5.59713 -0.47208,-5.82084 0.0595,-0.10914 2.06563,-0.19843 4.45814,-0.19843 h 4.35001 v 3.175 3.175 h -4.10935 c -3.04849,0 -4.13964,-0.0854 -4.22672,-0.33073 z"
         id="path306" /><path
         style="fill:#0f0e0d;stroke:#ffffff;stroke-width:0.5;stroke-dasharray:none;stroke-opacity:1"
         d="m 245.80992,173.35508 v -4.7625 h 1.5875 1.5875 v 1.5875 1.5875 h 1.45521 1.45521 v -1.5875 -1.5875 h 1.58749 1.5875 v 4.7625 4.7625 h -1.5875 -1.58749 v -1.5875 -1.5875 h -1.45521 -1.45521 v 1.5875 1.5875 h -1.5875 -1.5875 z m 13.49375,1.5875 v -3.175 h -1.32292 -1.32292 v -1.5875 -1.5875 h 4.36563 4.36562 v 1.5875 1.5875 h -1.4552 -1.45521 v 3.175 3.175 h -1.5875 -1.5875 z m 7.67291,-1.5875 v -4.7625 l 1.65365,0.004 1.65365,0.004 0.92604,1.57927 c 0.50932,0.86859 1.01679,1.55094 1.12771,1.51633 0.11091,-0.0346 0.59407,-0.71729 1.07367,-1.51707 l 0.872,-1.45413 1.7706,-0.0782 1.7706,-0.0782 v 4.77459 4.77459 h -1.5772 -1.5772 l -0.0764,-2.31511 -0.0764,-2.3151 -1.02965,1.52135 c -0.5663,0.83674 -1.12453,1.52135 -1.2405,1.52135 -0.11596,0 -0.60512,-0.65146 -1.08702,-1.4477 -0.48189,-0.79624 -0.96546,-1.45108 -1.0746,-1.45521 -0.10914,-0.004 -0.19844,1.00453 -0.19844,2.24146 v 2.24896 h -1.45521 -1.45521 z m 12.43542,0 v -4.7625 h 1.5875 1.5875 v 3.175 3.175 h 2.24896 2.24896 v 1.5875 1.5875 h -3.83646 -3.83646 z"
         id="path304"
         sodipodi:nodetypes="ccccccccccccccccccccccccccccccccccccccccccccccssscccccccccssscsccccccccccccccccc" /></g></g></svg>
