<?xml version="1.0" encoding="UTF-8" standalone="no"?>
<!-- Created with Inkscape (http://www.inkscape.org/) -->

<svg
   width="173.26932mm"
   height="222.1192mm"
   viewBox="0 0 173.26932 222.1192"
   version="1.1"
   id="svg5"
   xml:space="preserve"
   inkscape:version="1.2-rc (6364d40632, 2022-05-08)"
   sodipodi:docname="html_mr_digital.svg"
   xmlns:inkscape="http://www.inkscape.org/namespaces/inkscape"
   xmlns:sodipodi="http://sodipodi.sourceforge.net/DTD/sodipodi-0.dtd"
   xmlns="http://www.w3.org/2000/svg"
   xmlns:svg="http://www.w3.org/2000/svg"><sodipodi:namedview
     id="namedview7"
     pagecolor="#505050"
     bordercolor="#eeeeee"
     borderopacity="1"
     inkscape:showpageshadow="0"
     inkscape:pageopacity="0"
     inkscape:pagecheckerboard="0"
     inkscape:deskcolor="#505050"
     inkscape:document-units="mm"
     showgrid="false"
     inkscape:zoom="1.7888328"
     inkscape:cx="261.06409"
     inkscape:cy="264.69774"
     inkscape:window-width="2400"
     inkscape:window-height="1271"
     inkscape:window-x="-9"
     inkscape:window-y="951"
     inkscape:window-maximized="1"
     inkscape:current-layer="g372" /><defs
     id="defs2" /><g
     inkscape:label="Warstwa 1"
     inkscape:groupmode="layer"
     id="layer1"
     transform="translate(-17.848449,-17.107878)"><g
       id="g372"
       transform="translate(114.53431,74.568953)"><path
         style="fill:#ffffff;stroke:#000000;stroke-width:1.372;stroke-linecap:round;stroke-linejoin:round;stroke-dasharray:none;stroke-opacity:1"
         d="m -92.643872,-55.488774 -1.922809,97.027887 167.284362,2.070716 0.88745,-94.217627 z"
         id="path1294" /><path
         style="fill:#03b71e;stroke:#000000;stroke-width:1.372;stroke-dasharray:none;stroke-opacity:1"
         d="m -58.318509,159.62976 c 6.463545,-4.3223 6.496813,-4.35879 7.199145,-7.89551 0.388076,-1.95422 2.082237,-10.81028 3.764803,-19.68012 3.671542,-19.35495 3.347323,-17.8213 8.451598,-39.97849 2.255782,-9.792143 4.324979,-17.956429 4.598218,-18.142857 0.378222,-0.258065 3.261669,-13.842213 5.638874,-26.565175 0.0711,-0.380502 -0.165201,-0.834074 -0.525102,-1.007936 -0.359893,-0.173869 -1.34323,2.707687 -2.185179,6.403455 -0.84195,3.695767 -2.181034,9.592195 -2.975741,13.103174 -0.794706,3.510979 -1.776849,6.726101 -2.182542,7.144718 -0.848159,0.875184 -24.592058,9.878268 -24.993443,9.476887 -0.146027,-0.146029 4.331468,-3.416461 9.94999,-7.267632 l 10.215493,-7.002121 5.556534,-11.759259 c 3.056093,-6.467593 5.56392,-11.940426 5.572944,-12.16185 0.009,-0.221423 -14.722931,-0.622871 -32.737689,-0.892111 -18.014758,-0.26924 -32.841789,-0.577205 -32.948958,-0.684376 -0.475092,-0.475094 1.292414,-98.844667 1.784892,-99.337147 0.303035,-0.30303 9.592521,-0.15823 20.643302,0.32178 11.050781,0.48001 26.59352,0.85749 34.539419,0.83883 7.9459,-0.0187 13.086376,0.13342 11.423281,0.33795 -1.663096,0.20453 9.978571,0.75168 25.8703696,1.21589 57.6011924,1.68259 77.2798214,2.33136 77.5235314,2.55584 0.32613,0.3004 -1.92251,94.448771 -2.28192,95.541966 -0.21626,0.657779 -7.92325,0.839947 -35.535364,0.839947 -19.392564,0 -35.4218924,0.263233 -35.6207314,0.584952 -0.198839,0.321727 2.074394,6.385964 5.051623,13.476078 l 5.4131364,12.891118 -1.756967,2.303505 c -2.5501874,3.343466 -7.0816684,8.51744 -7.0816684,8.085741 0,-0.203489 1.360714,-2.492829 3.023809,-5.087426 1.663096,-2.594596 3.0238104,-5.132923 3.0238104,-5.640728 0,-1.332566 -8.5510984,-24.009841 -9.35774338,-24.816486 -0.455446,-0.455446 -0.781668,-0.365377 -0.995129,0.274744 -0.174655,0.52377 -1.72691802,12.140407 -3.44946802,25.814745 -1.72255,13.674339 -3.658796,28.944574 -4.302766,33.933864 l -1.17086,9.07143 2.857218,8.06349 c 1.571474,4.43492 4.774635,13.39734 7.11814202,19.91649 l 4.26092298,11.853 3.863757,3.18036 c 2.1250664,1.7492 3.8637574,3.38461 3.8637574,3.63426 0,0.58355 -11.5918754,-0.56943 -12.27225238,-1.22066 -0.282148,-0.27006 -4.36429102,-10.87529 -9.07142902,-23.56716 l -8.5584346,-23.07613 -8.399471,-2.51548 -8.399472,-2.51548 -0.716924,2.11572 c -0.394308,1.16365 -3.402703,13.19536 -6.685321,26.73715 l -5.968396,24.62144 -2.983862,0.40898 c -1.641124,0.22495 -5.585183,0.40899 -8.764575,0.40899 h -5.780714 z M 70.803851,15.023376 c 0.24489,-15.02842869 0.44526,-35.590334 0.44526,-45.693126 v -18.36871 l -4.19974,-0.011 c -2.30985,-0.006 -11.608068,-0.29839 -20.662698,-0.64964 -9.05463,-0.35125 -29.616534,-1.1059 -45.69312138,-1.677 -16.07658762,-0.5711 -40.99618162,-1.48829 -55.37687662,-2.03819 -34.613492,-1.3236 -36.501985,-1.31459 -36.922424,0.17609 -0.182415,0.64676 -0.540331,22.264607 -0.795367,48.0396593 l -0.463705,46.8637277 40.227599,0.178694 c 22.125181,0.09829 58.8504486,0.25187 81.611705,0.341301 l 41.384108,0.1626 z m -95.462214,5.639505 c -3.041045,-2.256346 -5.391056,-4.240563 -5.222247,-4.409366 0.16881,-0.168809 2.959315,0.05382 6.201121,0.494749 5.681806,0.772785 6.208983,0.726487 14.6296546,-1.28481 4.804497,-1.147569 9.11342502,-2.210942 9.57539602,-2.36306 0.461971,-0.152111 0.83994698,-0.16467 0.83994698,-0.02789 0,0.458907 -19.1449336,11.805087 -19.8239866,11.748616 -0.368898,-0.03071 -3.158846,-1.901883 -6.199885,-4.158222 z"
         id="path376"
         sodipodi:nodetypes="sssssssssssscsssssscssssssscsssssssscsscsssscccsscsscsssccsscsscsscssssssscss" /><path
         style="fill:#000000;fill-opacity:1;stroke:#000000;stroke-width:1.09218;stroke-linecap:round;stroke-linejoin:round;stroke-dasharray:none;stroke-opacity:1"
         id="path1349"
         d="m 1.5899472,-25.365873 c 0.1570181,4.79077 0.1436695,9.591076 0.1621765,14.387006 -0.00675,3.8916239 0.00379,2.0093308 -0.028868,5.6469225 0,0 1.8860723,1.5565983 1.8860723,1.5565983 v 0 c -0.032559,-3.6794973 -0.022104,-1.7813162 -0.028868,-5.694573 0.018278,-4.7066288 0.00246,-9.4181388 0.1621764,-14.1193118 0,0 -2.1526886,-1.776642 -2.1526889,-1.776642 z" /><path
         style="fill:#000000;fill-opacity:1;stroke:#000000;stroke-width:1.07428;stroke-linecap:round;stroke-linejoin:round;stroke-dasharray:none;stroke-opacity:1"
         id="path1351"
         d="m -30.076664,-28.182707 c 0.185989,5.072247 0.140172,10.16091 0.08076,15.239093 -0.02841,2.158484 -0.06452,4.3166131 -0.09993,6.4747907 -0.0099,0.561909 -0.0058,0.2938534 -0.01278,0.8041559 0,0 2.112252,1.7992123 2.112252,1.7992123 v 0 c -0.007,-0.5232511 -0.0029,-0.2479311 -0.0128,-0.8259546 -0.03535,-2.2149297 -0.0714,-4.4298166 -0.09993,-6.6450363 -0.05022,-4.378226 -0.09768,-8.767861 0.0093,-13.144806 0.01596,-0.652902 0.04762,-1.304467 0.07143,-1.956702 0,0 -2.048321,-1.744753 -2.048321,-1.744753 z" /><path
         style="fill:#000000;fill-opacity:1;stroke:#000000;stroke-width:1.372;stroke-linecap:round;stroke-linejoin:round;stroke-dasharray:none;stroke-opacity:1"
         id="path1353"
         d="m -41.737047,-38.61955 c 0.707234,-0.261027 1.411428,-0.530442 2.121699,-0.783084 0.881357,-0.313495 5.88763,-2.030288 6.551184,-2.264659 3.397742,-1.200097 3.549552,-1.281681 6.830806,-2.537071 0,0 -2.643187,-1.773531 -2.643187,-1.773531 v 0 c -1.0672,0.427971 -2.126337,0.876628 -3.201604,1.283909 -4.165671,1.57784 -8.435697,2.860627 -12.74454,3.983035 0,0 3.085642,2.091401 3.085642,2.091401 z" /><path
         style="fill:#000000;fill-opacity:1;stroke:#000000;stroke-width:1.372;stroke-linecap:round;stroke-linejoin:round;stroke-dasharray:none;stroke-opacity:1"
         id="path1353-4"
         d="m -3.0006873,-31.186936 c 0.7263801,0.20171 1.4551979,0.394838 2.17913957,0.605126 0.8983196,0.260943 5.96357433,1.795004 6.63893293,1.992803 3.4581854,1.012836 3.629045,1.035402 7.0250518,1.935276 0,0 -1.107513,-2.984169 -1.107513,-2.984169 v 0 c -1.11602,-0.276722 -2.2375921,-0.531947 -3.3480604,-0.83017 -4.3020439,-1.155341 -8.51624963,-2.611065 -12.6681829,-4.219598 0,0 1.280632,3.500732 1.280632,3.500732 z" /></g></g></svg>
